<svg width="87" height="50" viewBox="0 0 87 50" fill="none" xmlns="http://www.w3.org/2000/svg">
<path d="M7.05078 6.21289L3.18359 18H0.0683594L5.35156 3.78125H7.33398L7.05078 6.21289ZM10.2637 18L6.38672 6.21289L6.07422 3.78125H8.07617L13.3887 18H10.2637ZM10.0879 12.707V15.002H2.57812V12.707H10.0879Z" fill="black"/>
<path d="M19.3723 18H16.2766L16.2961 15.7148H19.3723C20.1405 15.7148 20.7883 15.5423 21.3156 15.1973C21.843 14.8457 22.2401 14.3346 22.507 13.6641C22.7805 12.9935 22.9172 12.1829 22.9172 11.2324V10.5391C22.9172 9.8099 22.8391 9.16862 22.6828 8.61523C22.5331 8.06185 22.3085 7.59635 22.009 7.21875C21.7095 6.84115 21.3417 6.55794 20.9055 6.36914C20.4693 6.17383 19.968 6.07617 19.4016 6.07617H16.218V3.78125H19.4016C20.3521 3.78125 21.2212 3.94401 22.009 4.26953C22.8033 4.58854 23.4901 5.04753 24.0695 5.64648C24.649 6.24544 25.0949 6.96159 25.4074 7.79492C25.7264 8.62174 25.8859 9.54297 25.8859 10.5586V11.2324C25.8859 12.2415 25.7264 13.1628 25.4074 13.9961C25.0949 14.8294 24.649 15.5456 24.0695 16.1445C23.4966 16.737 22.8098 17.196 22.009 17.5215C21.2147 17.8405 20.3358 18 19.3723 18ZM17.9367 3.78125V18H15.007V3.78125H17.9367Z" fill="black"/>
<path d="M39.9945 10.5586V11.2324C39.9945 12.3132 39.848 13.2832 39.5551 14.1426C39.2621 15.002 38.8487 15.7344 38.3148 16.3398C37.781 16.9388 37.143 17.3978 36.4008 17.7168C35.6651 18.0358 34.848 18.1953 33.9496 18.1953C33.0577 18.1953 32.2406 18.0358 31.4984 17.7168C30.7628 17.3978 30.1247 16.9388 29.5844 16.3398C29.044 15.7344 28.6241 15.002 28.3246 14.1426C28.0316 13.2832 27.8852 12.3132 27.8852 11.2324V10.5586C27.8852 9.47135 28.0316 8.5013 28.3246 7.64844C28.6176 6.78906 29.031 6.05664 29.5648 5.45117C30.1052 4.8457 30.7432 4.38346 31.4789 4.06445C32.2211 3.74544 33.0381 3.58594 33.9301 3.58594C34.8285 3.58594 35.6456 3.74544 36.3812 4.06445C37.1234 4.38346 37.7615 4.8457 38.2953 5.45117C38.8357 6.05664 39.2523 6.78906 39.5453 7.64844C39.8448 8.5013 39.9945 9.47135 39.9945 10.5586ZM37.0355 11.2324V10.5391C37.0355 9.78385 36.9672 9.11979 36.8305 8.54688C36.6937 7.97396 36.4919 7.49219 36.225 7.10156C35.9581 6.71094 35.6326 6.41797 35.2484 6.22266C34.8643 6.02083 34.4249 5.91992 33.9301 5.91992C33.4353 5.91992 32.9958 6.02083 32.6117 6.22266C32.2341 6.41797 31.9118 6.71094 31.6449 7.10156C31.3845 7.49219 31.1859 7.97396 31.0492 8.54688C30.9125 9.11979 30.8441 9.78385 30.8441 10.5391V11.2324C30.8441 11.9811 30.9125 12.6452 31.0492 13.2246C31.1859 13.7975 31.3878 14.2826 31.6547 14.6797C31.9216 15.0703 32.2471 15.3665 32.6312 15.5684C33.0154 15.7702 33.4548 15.8711 33.9496 15.8711C34.4444 15.8711 34.8839 15.7702 35.268 15.5684C35.6521 15.3665 35.9743 15.0703 36.2348 14.6797C36.4952 14.2826 36.6937 13.7975 36.8305 13.2246C36.9672 12.6452 37.0355 11.9811 37.0355 11.2324Z" fill="black"/>
<path d="M50.6461 13.2832H53.566C53.5074 14.2402 53.2438 15.0898 52.775 15.832C52.3128 16.5742 51.665 17.1536 50.8316 17.5703C50.0048 17.987 49.0087 18.1953 47.8434 18.1953C46.9319 18.1953 46.1148 18.0391 45.3922 17.7266C44.6695 17.4076 44.051 16.9518 43.5367 16.3594C43.0289 15.7669 42.6415 15.0508 42.3746 14.2109C42.1077 13.3711 41.9742 12.4303 41.9742 11.3887V10.4023C41.9742 9.36068 42.1109 8.41992 42.3844 7.58008C42.6643 6.73372 43.0615 6.01432 43.5758 5.42188C44.0966 4.82943 44.7184 4.3737 45.441 4.05469C46.1637 3.73568 46.971 3.57617 47.8629 3.57617C49.0478 3.57617 50.0471 3.79102 50.8609 4.2207C51.6813 4.65039 52.316 5.24284 52.7652 5.99805C53.221 6.75326 53.4944 7.61263 53.5855 8.57617H50.6559C50.6233 8.00326 50.5094 7.51823 50.3141 7.12109C50.1188 6.71745 49.8225 6.41471 49.4254 6.21289C49.0348 6.00456 48.5139 5.90039 47.8629 5.90039C47.3746 5.90039 46.9482 5.99154 46.5836 6.17383C46.219 6.35612 45.913 6.63281 45.6656 7.00391C45.4182 7.375 45.2327 7.84375 45.109 8.41016C44.9918 8.97005 44.9332 9.6276 44.9332 10.3828V11.3887C44.9332 12.1243 44.9885 12.7721 45.0992 13.332C45.2099 13.8854 45.3792 14.3542 45.607 14.7383C45.8414 15.1159 46.1409 15.4023 46.5055 15.5977C46.8766 15.7865 47.3225 15.8809 47.8434 15.8809C48.4553 15.8809 48.9599 15.7832 49.357 15.5879C49.7542 15.3926 50.0569 15.1029 50.2652 14.7188C50.4801 14.3346 50.607 13.8561 50.6461 13.2832ZM46.7984 17.9609H48.9176L48.8102 18.5371C49.1813 18.6022 49.5198 18.7585 49.8258 19.0059C50.1318 19.2533 50.2848 19.6602 50.2848 20.2266C50.2848 20.5716 50.2099 20.8841 50.0602 21.1641C49.9169 21.444 49.7021 21.6849 49.4156 21.8867C49.1292 22.0951 48.7711 22.2513 48.3414 22.3555C47.9117 22.4661 47.4169 22.5215 46.857 22.5215L46.7887 20.959C46.997 20.959 47.1858 20.9297 47.3551 20.8711C47.5244 20.8125 47.6578 20.7214 47.7555 20.5977C47.8531 20.4805 47.902 20.3242 47.902 20.1289C47.902 19.9466 47.8531 19.8034 47.7555 19.6992C47.6578 19.5951 47.5048 19.5169 47.2965 19.4648C47.0947 19.4128 46.8277 19.377 46.4957 19.3574L46.7984 17.9609Z" fill="black"/>
<path d="M61.5711 6.21289L57.7039 18H54.5887L59.8719 3.78125H61.8543L61.5711 6.21289ZM64.784 18L60.907 6.21289L60.5945 3.78125H62.5965L67.909 18H64.784ZM64.6082 12.707V15.002H57.0984V12.707H64.6082ZM63.3094 0.0214844L64.9305 0.128906C64.9305 0.604167 64.8361 1.03711 64.6473 1.42773C64.4585 1.81185 64.198 2.12109 63.866 2.35547C63.534 2.58333 63.1531 2.69727 62.7234 2.69727C62.4109 2.69727 62.1408 2.65495 61.9129 2.57031C61.6915 2.48568 61.4865 2.38802 61.2977 2.27734C61.1089 2.16016 60.9135 2.05924 60.7117 1.97461C60.5164 1.88997 60.2918 1.84766 60.0379 1.84766C59.81 1.84766 59.6147 1.92904 59.452 2.0918C59.2957 2.25456 59.2176 2.48893 59.2176 2.79492L57.5867 2.70703C57.5867 2.23828 57.6811 1.80859 57.8699 1.41797C58.0587 1.02734 58.3191 0.714844 58.6512 0.480469C58.9832 0.239583 59.3608 0.119141 59.784 0.119141C60.0509 0.119141 60.2951 0.164714 60.5164 0.255859C60.7378 0.340495 60.9493 0.438151 61.1512 0.548828C61.3595 0.659505 61.5711 0.757161 61.7859 0.841797C62.0008 0.926432 62.2286 0.96875 62.4695 0.96875C62.6974 0.96875 62.8927 0.88737 63.0555 0.724609C63.2247 0.555339 63.3094 0.320964 63.3094 0.0214844Z" fill="black"/>
<path d="M81.0312 10.5586V11.2324C81.0312 12.3132 80.8848 13.2832 80.5918 14.1426C80.2988 15.002 79.8854 15.7344 79.3516 16.3398C78.8177 16.9388 78.1797 17.3978 77.4375 17.7168C76.7018 18.0358 75.8848 18.1953 74.9863 18.1953C74.0944 18.1953 73.2773 18.0358 72.5352 17.7168C71.7995 17.3978 71.1615 16.9388 70.6211 16.3398C70.0807 15.7344 69.6608 15.002 69.3613 14.1426C69.0684 13.2832 68.9219 12.3132 68.9219 11.2324V10.5586C68.9219 9.47135 69.0684 8.5013 69.3613 7.64844C69.6543 6.78906 70.0677 6.05664 70.6016 5.45117C71.1419 4.8457 71.7799 4.38346 72.5156 4.06445C73.2578 3.74544 74.0749 3.58594 74.9668 3.58594C75.8652 3.58594 76.6823 3.74544 77.418 4.06445C78.1602 4.38346 78.7982 4.8457 79.332 5.45117C79.8724 6.05664 80.2891 6.78906 80.582 7.64844C80.8815 8.5013 81.0312 9.47135 81.0312 10.5586ZM78.0723 11.2324V10.5391C78.0723 9.78385 78.0039 9.11979 77.8672 8.54688C77.7305 7.97396 77.5286 7.49219 77.2617 7.10156C76.9948 6.71094 76.6693 6.41797 76.2852 6.22266C75.901 6.02083 75.4616 5.91992 74.9668 5.91992C74.472 5.91992 74.0326 6.02083 73.6484 6.22266C73.2708 6.41797 72.9486 6.71094 72.6816 7.10156C72.4212 7.49219 72.2227 7.97396 72.0859 8.54688C71.9492 9.11979 71.8809 9.78385 71.8809 10.5391V11.2324C71.8809 11.9811 71.9492 12.6452 72.0859 13.2246C72.2227 13.7975 72.4245 14.2826 72.6914 14.6797C72.9583 15.0703 73.2839 15.3665 73.668 15.5684C74.0521 15.7702 74.4915 15.8711 74.9863 15.8711C75.4811 15.8711 75.9206 15.7702 76.3047 15.5684C76.6888 15.3665 77.0111 15.0703 77.2715 14.6797C77.5319 14.2826 77.7305 13.7975 77.8672 13.2246C78.0039 12.6452 78.0723 11.9811 78.0723 11.2324Z" fill="black"/>
<path d="M43.8066 43.9316H40.1836V41.6465H43.8066C44.3665 41.6465 44.8223 41.5553 45.1738 41.373C45.5254 41.1842 45.7826 40.9238 45.9453 40.5918C46.1081 40.2598 46.1895 39.8854 46.1895 39.4688C46.1895 39.0456 46.1081 38.6517 45.9453 38.2871C45.7826 37.9225 45.5254 37.6296 45.1738 37.4082C44.8223 37.1868 44.3665 37.0762 43.8066 37.0762H41.1992V49H38.2695V34.7812H43.8066C44.9199 34.7812 45.8737 34.9831 46.668 35.3867C47.4688 35.7839 48.0807 36.334 48.5039 37.0371C48.9271 37.7402 49.1387 38.5443 49.1387 39.4492C49.1387 40.3672 48.9271 41.1615 48.5039 41.832C48.0807 42.5026 47.4688 43.0202 46.668 43.3848C45.8737 43.7493 44.9199 43.9316 43.8066 43.9316Z" fill="black"/>
<path d="M61.0012 46.7148V49H53.4328V46.7148H61.0012ZM54.3898 34.7812V49H51.4602V34.7812H54.3898ZM60.0148 40.5723V42.7988H53.4328V40.5723H60.0148ZM60.9914 34.7812V37.0762H53.4328V34.7812H60.9914Z" fill="black"/>
<path d="M69.5629 34.7812V49H66.643V34.7812H69.5629ZM73.9379 34.7812V37.0762H62.3363V34.7812H73.9379Z" fill="black"/>
<path d="M83.1539 45.2793C83.1539 45.0254 83.1148 44.7975 83.0367 44.5957C82.9651 44.3874 82.8284 44.1986 82.6266 44.0293C82.4247 43.8535 82.1415 43.681 81.777 43.5117C81.4124 43.3424 80.9404 43.1667 80.3609 42.9844C79.7164 42.776 79.1044 42.5417 78.525 42.2812C77.9521 42.0208 77.4443 41.7181 77.0016 41.373C76.5654 41.0215 76.2203 40.6146 75.9664 40.1523C75.719 39.6901 75.5953 39.153 75.5953 38.541C75.5953 37.9486 75.7255 37.4115 75.9859 36.9297C76.2464 36.4414 76.6109 36.0247 77.0797 35.6797C77.5484 35.3281 78.1018 35.0579 78.7398 34.8691C79.3844 34.6803 80.0908 34.5859 80.859 34.5859C81.9072 34.5859 82.8219 34.7747 83.6031 35.1523C84.3844 35.5299 84.9898 36.0475 85.4195 36.7051C85.8557 37.3626 86.0738 38.1146 86.0738 38.9609H83.1637C83.1637 38.5443 83.0758 38.1797 82.9 37.8672C82.7307 37.5482 82.4703 37.2975 82.1188 37.1152C81.7737 36.9329 81.3375 36.8418 80.8102 36.8418C80.3023 36.8418 79.8792 36.9199 79.5406 37.0762C79.2021 37.2259 78.9482 37.431 78.7789 37.6914C78.6096 37.9453 78.525 38.2318 78.525 38.5508C78.525 38.7917 78.5836 39.0098 78.7008 39.2051C78.8245 39.4004 79.0068 39.5827 79.2477 39.752C79.4885 39.9212 79.7848 40.0807 80.1363 40.2305C80.4879 40.3802 80.8948 40.5267 81.357 40.6699C82.1318 40.9043 82.8121 41.168 83.398 41.4609C83.9905 41.7539 84.4853 42.0827 84.8824 42.4473C85.2796 42.8118 85.579 43.2253 85.7809 43.6875C85.9827 44.1497 86.0836 44.6738 86.0836 45.2598C86.0836 45.8783 85.9632 46.4316 85.7223 46.9199C85.4814 47.4082 85.1331 47.8216 84.6773 48.1602C84.2216 48.4987 83.678 48.7559 83.0465 48.9316C82.415 49.1074 81.7086 49.1953 80.9273 49.1953C80.2242 49.1953 79.5309 49.1042 78.8473 48.9219C78.1637 48.7331 77.5419 48.4499 76.982 48.0723C76.4286 47.6947 75.9859 47.2129 75.6539 46.627C75.3219 46.041 75.1559 45.3477 75.1559 44.5469H78.0953C78.0953 44.9896 78.1637 45.3639 78.3004 45.6699C78.4371 45.9759 78.6292 46.2233 78.8766 46.4121C79.1305 46.6009 79.4299 46.7376 79.775 46.8223C80.1266 46.9069 80.5107 46.9492 80.9273 46.9492C81.4352 46.9492 81.8518 46.8776 82.1773 46.7344C82.5094 46.5911 82.7535 46.3926 82.9098 46.1387C83.0725 45.8848 83.1539 45.5983 83.1539 45.2793Z" fill="black"/>
</svg>
